<svg width="60" height="60" viewBox="0 0 60 60" fill="none" xmlns="http://www.w3.org/2000/svg">
<g filter="url(#filter0_d_1_96)">
<rect x="5" y="3" width="50" height="50" rx="8" fill="url(#paint0_linear_1_96)"/>
<rect x="6" y="4" width="48" height="48" rx="7" stroke="#0D3573" stroke-width="2"/>
</g>
<g clip-path="url(#clip0_1_96)" filter="url(#filter1_d_1_96)">
<path opacity="0.4" d="M19 19.25V37.375C19 39.3744 20.6443 41 22.6667 41H37.3333C39.3557 41 41 39.3744 41 37.375V19.25C41 17.2506 39.3557 15.625 37.3333 15.625H34.4917C34.5031 15.6703 34.5089 15.7156 34.5146 15.7553C35.6203 16.1121 36.4167 17.1373 36.4167 18.3438V19.7031C36.4167 20.4564 35.8036 21.0625 35.0417 21.0625H30H24.9583C24.1964 21.0625 23.5833 20.4564 23.5833 19.7031V18.3438C23.5833 17.1373 24.3797 16.1121 25.4854 15.7553C25.4911 15.71 25.5026 15.6646 25.5083 15.625H22.6667C20.6443 15.625 19 17.2506 19 19.25ZM25.875 27.4062C25.875 27.7668 25.7301 28.1125 25.4723 28.3675C25.2144 28.6224 24.8647 28.7656 24.5 28.7656C24.1353 28.7656 23.7856 28.6224 23.5277 28.3675C23.2699 28.1125 23.125 27.7668 23.125 27.4062C23.125 27.0457 23.2699 26.7 23.5277 26.445C23.7856 26.1901 24.1353 26.0469 24.5 26.0469C24.8647 26.0469 25.2144 26.1901 25.4723 26.445C25.7301 26.7 25.875 27.0457 25.875 27.4062ZM25.875 32.8438C25.875 33.2043 25.7301 33.55 25.4723 33.805C25.2144 34.0599 24.8647 34.2031 24.5 34.2031C24.1353 34.2031 23.7856 34.0599 23.5277 33.805C23.2699 33.55 23.125 33.2043 23.125 32.8438C23.125 32.4832 23.2699 32.1375 23.5277 31.8825C23.7856 31.6276 24.1353 31.4844 24.5 31.4844C24.8647 31.4844 25.2144 31.6276 25.4723 31.8825C25.7301 32.1375 25.875 32.4832 25.875 32.8438ZM28.1667 27.4062C28.1667 26.9078 28.5792 26.5 29.0833 26.5H36.4167C36.9208 26.5 37.3333 26.9078 37.3333 27.4062C37.3333 27.9047 36.9208 28.3125 36.4167 28.3125H29.0833C28.5792 28.3125 28.1667 27.9047 28.1667 27.4062ZM28.1667 32.8438C28.1667 32.3453 28.5792 31.9375 29.0833 31.9375H36.4167C36.9208 31.9375 37.3333 32.3453 37.3333 32.8438C37.3333 33.3422 36.9208 33.75 36.4167 33.75H29.0833C28.5792 33.75 28.1667 33.3422 28.1667 32.8438Z" fill="#EEEEEE"/>
<path d="M25.4854 15.7553C25.8521 13.6256 27.737 12 30 12C32.263 12 34.1479 13.6256 34.5146 15.7553C35.6203 16.1121 36.4167 17.1373 36.4167 18.3438V19.7031C36.4167 20.4564 35.8036 21.0625 35.0417 21.0625H30H24.9583C24.1964 21.0625 23.5833 20.4564 23.5833 19.7031V18.3438C23.5833 17.1373 24.3797 16.1121 25.4854 15.7553ZM31.375 16.5312C31.375 16.1707 31.2301 15.825 30.9723 15.57C30.7144 15.3151 30.3647 15.1719 30 15.1719C29.6353 15.1719 29.2856 15.3151 29.0277 15.57C28.7699 15.825 28.625 16.1707 28.625 16.5312C28.625 16.8918 28.7699 17.2375 29.0277 17.4925C29.2856 17.7474 29.6353 17.8906 30 17.8906C30.3647 17.8906 30.7144 17.7474 30.9723 17.4925C31.2301 17.2375 31.375 16.8918 31.375 16.5312ZM23.125 27.4062C23.125 27.0457 23.2699 26.7 23.5277 26.445C23.7856 26.1901 24.1353 26.0469 24.5 26.0469C24.8647 26.0469 25.2144 26.1901 25.4723 26.445C25.7301 26.7 25.875 27.0457 25.875 27.4062C25.875 27.7668 25.7301 28.1125 25.4723 28.3675C25.2144 28.6224 24.8647 28.7656 24.5 28.7656C24.1353 28.7656 23.7856 28.6224 23.5277 28.3675C23.2699 28.1125 23.125 27.7668 23.125 27.4062ZM23.125 32.8438C23.125 32.4832 23.2699 32.1375 23.5277 31.8825C23.7856 31.6276 24.1353 31.4844 24.5 31.4844C24.8647 31.4844 25.2144 31.6276 25.4723 31.8825C25.7301 32.1375 25.875 32.4832 25.875 32.8438C25.875 33.2043 25.7301 33.55 25.4723 33.805C25.2144 34.0599 24.8647 34.2031 24.5 34.2031C24.1353 34.2031 23.7856 34.0599 23.5277 33.805C23.2699 33.55 23.125 33.2043 23.125 32.8438Z" fill="#EEEEEE"/>
</g>
<defs>
<filter id="filter0_d_1_96" x="0" y="0" width="60" height="60" filterUnits="userSpaceOnUse" color-interpolation-filters="sRGB">
<feFlood flood-opacity="0" result="BackgroundImageFix"/>
<feColorMatrix in="SourceAlpha" type="matrix" values="0 0 0 0 0 0 0 0 0 0 0 0 0 0 0 0 0 0 127 0" result="hardAlpha"/>
<feOffset dy="2"/>
<feGaussianBlur stdDeviation="2.5"/>
<feComposite in2="hardAlpha" operator="out"/>
<feColorMatrix type="matrix" values="0 0 0 0 0 0 0 0 0 0 0 0 0 0 0 0 0 0 0.25 0"/>
<feBlend mode="normal" in2="BackgroundImageFix" result="effect1_dropShadow_1_96"/>
<feBlend mode="normal" in="SourceGraphic" in2="effect1_dropShadow_1_96" result="shape"/>
</filter>
<filter id="filter1_d_1_96" x="14" y="9" width="32" height="39" filterUnits="userSpaceOnUse" color-interpolation-filters="sRGB">
<feFlood flood-opacity="0" result="BackgroundImageFix"/>
<feColorMatrix in="SourceAlpha" type="matrix" values="0 0 0 0 0 0 0 0 0 0 0 0 0 0 0 0 0 0 127 0" result="hardAlpha"/>
<feOffset dy="2"/>
<feGaussianBlur stdDeviation="2.5"/>
<feColorMatrix type="matrix" values="0 0 0 0 0 0 0 0 0 0 0 0 0 0 0 0 0 0 0.25 0"/>
<feBlend mode="normal" in2="BackgroundImageFix" result="effect1_dropShadow_1_96"/>
<feBlend mode="normal" in="SourceGraphic" in2="effect1_dropShadow_1_96" result="shape"/>
</filter>
<linearGradient id="paint0_linear_1_96" x1="30" y1="3" x2="30" y2="53" gradientUnits="userSpaceOnUse">
<stop stop-color="#124BA1"/>
<stop offset="1" stop-color="#0C316A"/>
</linearGradient>
<clipPath id="clip0_1_96">
<rect width="22" height="29" fill="white" transform="translate(19 12)"/>
</clipPath>
</defs>
</svg>
